<mxfile host="app.diagrams.net" agent="Mozilla/5.0 (Windows NT 10.0; Win64; x64) AppleWebKit/537.36 (KHTML, like Gecko) Chrome/140.0.0.0 Safari/537.36 Edg/140.0.0.0" version="28.2.3">
  <diagram name="Página-1" id="k9Yk6ZPLxcv3KK9TUnO3">
    <mxGraphModel dx="1418" dy="786" grid="1" gridSize="10" guides="1" tooltips="1" connect="1" arrows="1" fold="1" page="1" pageScale="1" pageWidth="827" pageHeight="1169" math="0" shadow="0">
      <root>
        <mxCell id="0" />
        <mxCell id="1" parent="0" />
        <mxCell id="j1OZ1AMPAy66AwUhkmDT-75" value="" style="edgeStyle=orthogonalEdgeStyle;rounded=0;orthogonalLoop=1;jettySize=auto;html=1;" edge="1" parent="1" source="j1OZ1AMPAy66AwUhkmDT-55" target="j1OZ1AMPAy66AwUhkmDT-56">
          <mxGeometry relative="1" as="geometry" />
        </mxCell>
        <mxCell id="j1OZ1AMPAy66AwUhkmDT-55" value="Inicio" style="ellipse;whiteSpace=wrap;html=1;fillColor=#f5f5f5;gradientColor=#b3b3b3;strokeColor=#666666;" vertex="1" parent="1">
          <mxGeometry x="350" y="90" width="120" height="80" as="geometry" />
        </mxCell>
        <mxCell id="j1OZ1AMPAy66AwUhkmDT-61" style="edgeStyle=orthogonalEdgeStyle;rounded=0;orthogonalLoop=1;jettySize=auto;html=1;" edge="1" parent="1" source="j1OZ1AMPAy66AwUhkmDT-56" target="j1OZ1AMPAy66AwUhkmDT-57">
          <mxGeometry relative="1" as="geometry" />
        </mxCell>
        <mxCell id="j1OZ1AMPAy66AwUhkmDT-56" value="Ler n1,n2,n3" style="shape=parallelogram;perimeter=parallelogramPerimeter;whiteSpace=wrap;html=1;fixedSize=1;fillColor=#dae8fc;gradientColor=#7ea6e0;strokeColor=#6c8ebf;" vertex="1" parent="1">
          <mxGeometry x="354" y="230" width="120" height="60" as="geometry" />
        </mxCell>
        <mxCell id="j1OZ1AMPAy66AwUhkmDT-64" value="" style="edgeStyle=orthogonalEdgeStyle;rounded=0;orthogonalLoop=1;jettySize=auto;html=1;" edge="1" parent="1" source="j1OZ1AMPAy66AwUhkmDT-57" target="j1OZ1AMPAy66AwUhkmDT-58">
          <mxGeometry relative="1" as="geometry" />
        </mxCell>
        <mxCell id="j1OZ1AMPAy66AwUhkmDT-68" value="" style="edgeStyle=orthogonalEdgeStyle;rounded=0;orthogonalLoop=1;jettySize=auto;html=1;" edge="1" parent="1" source="j1OZ1AMPAy66AwUhkmDT-57" target="j1OZ1AMPAy66AwUhkmDT-65">
          <mxGeometry relative="1" as="geometry">
            <Array as="points">
              <mxPoint x="480" y="410" />
              <mxPoint x="480" y="410" />
            </Array>
          </mxGeometry>
        </mxCell>
        <mxCell id="j1OZ1AMPAy66AwUhkmDT-69" value="Sim" style="edgeLabel;html=1;align=center;verticalAlign=middle;resizable=0;points=[];" vertex="1" connectable="0" parent="j1OZ1AMPAy66AwUhkmDT-68">
          <mxGeometry x="-0.25" y="-2" relative="1" as="geometry">
            <mxPoint as="offset" />
          </mxGeometry>
        </mxCell>
        <mxCell id="j1OZ1AMPAy66AwUhkmDT-57" value="n1&amp;gt;n2 e n1&amp;gt;n3" style="rhombus;whiteSpace=wrap;html=1;fillColor=#f5f5f5;gradientColor=#b3b3b3;strokeColor=#666666;" vertex="1" parent="1">
          <mxGeometry x="330" y="370" width="120" height="80" as="geometry" />
        </mxCell>
        <mxCell id="j1OZ1AMPAy66AwUhkmDT-71" value="" style="edgeStyle=orthogonalEdgeStyle;rounded=0;orthogonalLoop=1;jettySize=auto;html=1;" edge="1" parent="1" source="j1OZ1AMPAy66AwUhkmDT-58" target="j1OZ1AMPAy66AwUhkmDT-66">
          <mxGeometry relative="1" as="geometry" />
        </mxCell>
        <mxCell id="j1OZ1AMPAy66AwUhkmDT-74" value="sim" style="edgeLabel;html=1;align=center;verticalAlign=middle;resizable=0;points=[];" vertex="1" connectable="0" parent="j1OZ1AMPAy66AwUhkmDT-71">
          <mxGeometry x="-0.4303" y="-1" relative="1" as="geometry">
            <mxPoint as="offset" />
          </mxGeometry>
        </mxCell>
        <mxCell id="j1OZ1AMPAy66AwUhkmDT-72" value="" style="edgeStyle=orthogonalEdgeStyle;rounded=0;orthogonalLoop=1;jettySize=auto;html=1;" edge="1" parent="1" source="j1OZ1AMPAy66AwUhkmDT-58" target="j1OZ1AMPAy66AwUhkmDT-59">
          <mxGeometry relative="1" as="geometry" />
        </mxCell>
        <mxCell id="j1OZ1AMPAy66AwUhkmDT-73" value="Não" style="edgeLabel;html=1;align=center;verticalAlign=middle;resizable=0;points=[];" vertex="1" connectable="0" parent="j1OZ1AMPAy66AwUhkmDT-72">
          <mxGeometry x="-0.6238" y="-1" relative="1" as="geometry">
            <mxPoint as="offset" />
          </mxGeometry>
        </mxCell>
        <mxCell id="j1OZ1AMPAy66AwUhkmDT-58" value="n3&amp;gt;n2 e n3&amp;gt;n1" style="rhombus;whiteSpace=wrap;html=1;fillColor=#f5f5f5;gradientColor=#b3b3b3;strokeColor=#666666;" vertex="1" parent="1">
          <mxGeometry x="130" y="545" width="130" height="80" as="geometry" />
        </mxCell>
        <mxCell id="j1OZ1AMPAy66AwUhkmDT-78" value="" style="edgeStyle=orthogonalEdgeStyle;rounded=0;orthogonalLoop=1;jettySize=auto;html=1;" edge="1" parent="1">
          <mxGeometry relative="1" as="geometry">
            <mxPoint x="600" y="720" as="sourcePoint" />
            <mxPoint x="400" y="960" as="targetPoint" />
          </mxGeometry>
        </mxCell>
        <mxCell id="j1OZ1AMPAy66AwUhkmDT-59" value="escrever n2" style="shape=parallelogram;perimeter=parallelogramPerimeter;whiteSpace=wrap;html=1;fixedSize=1;fillColor=#dae8fc;gradientColor=#7ea6e0;strokeColor=#6c8ebf;" vertex="1" parent="1">
          <mxGeometry x="580" y="710" width="120" height="60" as="geometry" />
        </mxCell>
        <mxCell id="j1OZ1AMPAy66AwUhkmDT-79" value="" style="edgeStyle=orthogonalEdgeStyle;rounded=0;orthogonalLoop=1;jettySize=auto;html=1;" edge="1" parent="1">
          <mxGeometry relative="1" as="geometry">
            <mxPoint x="718.04" y="430" as="sourcePoint" />
            <mxPoint x="450.00152422706634" y="990" as="targetPoint" />
            <Array as="points">
              <mxPoint x="718.04" y="990" />
            </Array>
          </mxGeometry>
        </mxCell>
        <mxCell id="j1OZ1AMPAy66AwUhkmDT-65" value="Escrever n1" style="shape=parallelogram;perimeter=parallelogramPerimeter;whiteSpace=wrap;html=1;fixedSize=1;fillColor=#dae8fc;gradientColor=#7ea6e0;strokeColor=#6c8ebf;" vertex="1" parent="1">
          <mxGeometry x="660" y="380" width="120" height="60" as="geometry" />
        </mxCell>
        <mxCell id="j1OZ1AMPAy66AwUhkmDT-77" value="" style="edgeStyle=orthogonalEdgeStyle;rounded=0;orthogonalLoop=1;jettySize=auto;html=1;" edge="1" parent="1" source="j1OZ1AMPAy66AwUhkmDT-66" target="j1OZ1AMPAy66AwUhkmDT-76">
          <mxGeometry relative="1" as="geometry">
            <Array as="points">
              <mxPoint x="180" y="1020" />
            </Array>
          </mxGeometry>
        </mxCell>
        <mxCell id="j1OZ1AMPAy66AwUhkmDT-66" value="escrever n3" style="shape=parallelogram;perimeter=parallelogramPerimeter;whiteSpace=wrap;html=1;fixedSize=1;fillColor=#dae8fc;gradientColor=#7ea6e0;strokeColor=#6c8ebf;" vertex="1" parent="1">
          <mxGeometry x="135" y="790" width="120" height="60" as="geometry" />
        </mxCell>
        <mxCell id="j1OZ1AMPAy66AwUhkmDT-70" value="não" style="text;html=1;align=center;verticalAlign=middle;resizable=0;points=[];autosize=1;strokeColor=none;fillColor=none;" vertex="1" parent="1">
          <mxGeometry x="230" y="388" width="40" height="30" as="geometry" />
        </mxCell>
        <mxCell id="j1OZ1AMPAy66AwUhkmDT-76" value="Fim" style="ellipse;whiteSpace=wrap;html=1;fillColor=#f5f5f5;gradientColor=#b3b3b3;strokeColor=#666666;" vertex="1" parent="1">
          <mxGeometry x="330" y="960" width="120" height="80" as="geometry" />
        </mxCell>
      </root>
    </mxGraphModel>
  </diagram>
</mxfile>
